HIERARCHY
ROOT Hips
{
	OFFSET 0.000000 121.760803 0.000000
	CHANNELS 6 Xposition Yposition Zposition Xrotation Yrotation Zrotation 
	JOINT Spine
	{
		OFFSET 0.072000 7.257294 -0.789700
		CHANNELS 3 Xrotation Yrotation Zrotation
		JOINT Spine1
		{
			OFFSET 0.000000 12.508769 -0.658067
			CHANNELS 3 Xrotation Yrotation Zrotation
			JOINT Spine1_split
			{
				OFFSET 0.000000 12.508769 -0.658067
				CHANNELS 3 Xrotation Yrotation Zrotation
				JOINT Spine2
				{
					OFFSET 0.000000 12.508769 -0.658067
					CHANNELS 3 Xrotation Yrotation Zrotation
					JOINT Neck
					{
						OFFSET 0.000000 14.033295 7.520400
						CHANNELS 3 Xrotation Yrotation Zrotation
						JOINT Head
						{
							OFFSET 0.000000 8.198502 5.703100
							CHANNELS 3 Xrotation Yrotation Zrotation
							JOINT HeadTop_End
							{
								OFFSET 0.000000 17.760803 13.332701
								CHANNELS 3 Xrotation Yrotation Zrotation
								End Site
								{
									OFFSET 0.000000 0.000000 0.000000
								}
							}
						}
					}
					JOINT LeftShoulder
					{
						OFFSET 6.292450 5.785301 -0.669000
						CHANNELS 3 Xrotation Yrotation Zrotation
						JOINT LeftShoulder_split
						{
							OFFSET 6.292450 5.785301 -0.669000
							CHANNELS 3 Xrotation Yrotation Zrotation
							JOINT LeftArm
							{
								OFFSET 13.907140 -6.093903 1.965100
								CHANNELS 3 Xrotation Yrotation Zrotation
								JOINT LeftForeArm
								{
									OFFSET 34.140198 0.000000 0.000000
									CHANNELS 3 Xrotation Yrotation Zrotation
									JOINT LeftHand
									{
										OFFSET 40.960209 0.000000 0.000000
										CHANNELS 3 Xrotation Yrotation Zrotation
										JOINT LeftHandThumb1
										{
											OFFSET 10.006996 -7.170425 9.573125
											CHANNELS 3 Xrotation Yrotation Zrotation
											JOINT LeftHandThumb2
											{
												OFFSET 1.835007 -1.059448 1.059443
												CHANNELS 3 Xrotation Yrotation Zrotation
												JOINT LeftHandThumb3
												{
													OFFSET 2.112267 -1.219513 1.219518
													CHANNELS 3 Xrotation Yrotation Zrotation
													JOINT LeftHandThumb4
													{
														OFFSET 4.843811 -2.796570 2.796576
														CHANNELS 3 Xrotation Yrotation Zrotation
														End Site
														{
															OFFSET 0.000000 0.000000 0.000000
														}
													}
												}
											}
										}
										JOINT LeftHandIndex1
										{
											OFFSET 18.389847 -0.922348 4.596882
											CHANNELS 3 Xrotation Yrotation Zrotation
											JOINT LeftHandIndex2
											{
												OFFSET 4.711273 0.000000 0.000000
												CHANNELS 3 Xrotation Yrotation Zrotation
												JOINT LeftHandIndex3
												{
													OFFSET 2.886131 0.000000 0.000000
													CHANNELS 3 Xrotation Yrotation Zrotation
													JOINT LeftHandIndex4
													{
														OFFSET 6.145912 0.000000 0.000000
														CHANNELS 3 Xrotation Yrotation Zrotation
														End Site
														{
															OFFSET 0.000000 0.000000 0.000000
														}
													}
												}
											}
										}
										JOINT LeftHandMiddle1
										{
											OFFSET 18.013008 0.000000 0.000000
											CHANNELS 3 Xrotation Yrotation Zrotation
											JOINT LeftHandMiddle2
											{
												OFFSET 4.946693 0.000000 0.000000
												CHANNELS 3 Xrotation Yrotation Zrotation
												JOINT LeftHandMiddle3
												{
													OFFSET 3.342232 0.000000 0.000000
													CHANNELS 3 Xrotation Yrotation Zrotation
													JOINT LeftHandMiddle4
													{
														OFFSET 4.461754 0.000000 0.000000
														CHANNELS 3 Xrotation Yrotation Zrotation
														End Site
														{
															OFFSET 0.000000 0.000000 0.000000
														}
													}
												}
											}
										}
										JOINT LeftHandRing1
										{
											OFFSET 15.849892 -0.102921 -4.126150
											CHANNELS 3 Xrotation Yrotation Zrotation
											JOINT LeftHandRing2
											{
												OFFSET 3.527054 0.000000 0.000000
												CHANNELS 3 Xrotation Yrotation Zrotation
												JOINT LeftHandRing3
												{
													OFFSET 2.961098 0.000000 0.000000
													CHANNELS 3 Xrotation Yrotation Zrotation
													JOINT LeftHandRing4
													{
														OFFSET 4.927200 0.000000 0.000000
														CHANNELS 3 Xrotation Yrotation Zrotation
														End Site
														{
															OFFSET 0.000000 0.000000 0.000000
														}
													}
												}
											}
										}
										JOINT LeftHandPinky1
										{
											OFFSET 12.791824 -0.832031 -6.799156
											CHANNELS 3 Xrotation Yrotation Zrotation
											JOINT LeftHandPinky2
											{
												OFFSET 3.327133 0.000000 0.000000
												CHANNELS 3 Xrotation Yrotation Zrotation
												JOINT LeftHandPinky3
												{
													OFFSET 3.014900 0.000000 0.000000
													CHANNELS 3 Xrotation Yrotation Zrotation
													JOINT LeftHandPinky4
													{
														OFFSET 5.847786 0.000000 0.000000
														CHANNELS 3 Xrotation Yrotation Zrotation
														End Site
														{
															OFFSET 0.000000 0.000000 0.000000
														}
													}
												}
											}
										}
									}
								}
							}
						}
					}
					JOINT RightShoulder
					{
						OFFSET -6.292450 5.785301 -0.669000
						CHANNELS 3 Xrotation Yrotation Zrotation
						JOINT RightShoulder_split
						{
							OFFSET -6.292450 5.785301 -0.669000
							CHANNELS 3 Xrotation Yrotation Zrotation
							JOINT RightArm
							{
								OFFSET -13.907140 -6.093903 1.965100
								CHANNELS 3 Xrotation Yrotation Zrotation
								JOINT RightForeArm
								{
									OFFSET -34.140198 0.000000 0.000000
									CHANNELS 3 Xrotation Yrotation Zrotation
									JOINT RightHand
									{
										OFFSET -40.960209 0.000000 0.000000
										CHANNELS 3 Xrotation Yrotation Zrotation
										JOINT RightHandThumb1
										{
											OFFSET -10.007050 -7.170456 9.573117
											CHANNELS 3 Xrotation Yrotation Zrotation
											JOINT RightHandThumb2
											{
												OFFSET -1.835007 -1.059448 1.059443
												CHANNELS 3 Xrotation Yrotation Zrotation
												JOINT RightHandThumb3
												{
													OFFSET -2.112267 -1.219513 1.219518
													CHANNELS 3 Xrotation Yrotation Zrotation
													JOINT RightHandThumb4
													{
														OFFSET -4.843834 -2.796585 2.796590
														CHANNELS 3 Xrotation Yrotation Zrotation
														End Site
														{
															OFFSET 0.000000 0.000000 0.000000
														}
													}
												}
											}
										}
										JOINT RightHandIndex1
										{
											OFFSET -18.389870 -0.922424 4.596786
											CHANNELS 3 Xrotation Yrotation Zrotation
											JOINT RightHandIndex2
											{
												OFFSET -4.711273 0.000000 0.000000
												CHANNELS 3 Xrotation Yrotation Zrotation
												JOINT RightHandIndex3
												{
													OFFSET -2.886131 0.000000 0.000000
													CHANNELS 3 Xrotation Yrotation Zrotation
													JOINT RightHandIndex4
													{
														OFFSET -6.145920 0.000000 0.000000
														CHANNELS 3 Xrotation Yrotation Zrotation
														End Site
														{
															OFFSET 0.000000 0.000000 0.000000
														}
													}
												}
											}
										}
										JOINT RightHandMiddle1
										{
											OFFSET -18.013008 0.000000 0.000000
											CHANNELS 3 Xrotation Yrotation Zrotation
											JOINT RightHandMiddle2
											{
												OFFSET -4.946693 0.000000 0.000000
												CHANNELS 3 Xrotation Yrotation Zrotation
												JOINT RightHandMiddle3
												{
													OFFSET -3.342232 0.000000 0.000000
													CHANNELS 3 Xrotation Yrotation Zrotation
													JOINT RightHandMiddle4
													{
														OFFSET -4.461754 0.000000 0.000000
														CHANNELS 3 Xrotation Yrotation Zrotation
														End Site
														{
															OFFSET 0.000000 0.000000 0.000000
														}
													}
												}
											}
										}
										JOINT RightHandRing1
										{
											OFFSET -15.849876 -0.102936 -4.126237
											CHANNELS 3 Xrotation Yrotation Zrotation
											JOINT RightHandRing2
											{
												OFFSET -3.527054 0.000000 0.000000
												CHANNELS 3 Xrotation Yrotation Zrotation
												JOINT RightHandRing3
												{
													OFFSET -2.961098 0.000000 0.000000
													CHANNELS 3 Xrotation Yrotation Zrotation
													JOINT RightHandRing4
													{
														OFFSET -4.927200 0.000000 0.000000
														CHANNELS 3 Xrotation Yrotation Zrotation
														End Site
														{
															OFFSET 0.000000 0.000000 0.000000
														}
													}
												}
											}
										}
										JOINT RightHandPinky1
										{
											OFFSET -12.791786 -0.832077 -6.799222
											CHANNELS 3 Xrotation Yrotation Zrotation
											JOINT RightHandPinky2
											{
												OFFSET -3.327133 0.000000 0.000000
												CHANNELS 3 Xrotation Yrotation Zrotation
												JOINT RightHandPinky3
												{
													OFFSET -3.014900 0.000000 0.000000
													CHANNELS 3 Xrotation Yrotation Zrotation
													JOINT RightHandPinky4
													{
														OFFSET -5.847786 0.000000 0.000000
														CHANNELS 3 Xrotation Yrotation Zrotation
														End Site
														{
															OFFSET 0.000000 0.000000 0.000000
														}
													}
												}
											}
										}
									}
								}
							}
						}
					}
				}
			}
		}
	}
	JOINT LeftUpLeg
	{
		OFFSET 13.026900 -6.336304 -1.092800
		CHANNELS 3 Xrotation Yrotation Zrotation
		JOINT LeftLeg
		{
			OFFSET 0.524474 -46.096886 9.782700
			CHANNELS 3 Xrotation Yrotation Zrotation
			JOINT LeftFoot
			{
				OFFSET -0.524474 -53.427422 -12.948200
				CHANNELS 3 Xrotation Yrotation Zrotation
				JOINT LeftToeBase
				{
					OFFSET 0.192200 -14.009700 16.364100
					CHANNELS 3 Xrotation Yrotation Zrotation
					JOINT LeftToe_End
					{
						OFFSET -1.784700 -0.561700 9.474800
						CHANNELS 3 Xrotation Yrotation Zrotation
						End Site
						{
							OFFSET 0.000000 0.000000 0.000000
						}
					}
				}
			}
		}
	}
	JOINT RightUpLeg
	{
		OFFSET -12.883000 -6.336304 -1.092800
		CHANNELS 3 Xrotation Yrotation Zrotation
		JOINT RightLeg
		{
			OFFSET -0.524587 -46.096825 9.782800
			CHANNELS 3 Xrotation Yrotation Zrotation
			JOINT RightFoot
			{
				OFFSET 0.524587 -53.427383 -12.948300
				CHANNELS 3 Xrotation Yrotation Zrotation
				JOINT RightToeBase
				{
					OFFSET -0.192200 -14.009700 16.364100
					CHANNELS 3 Xrotation Yrotation Zrotation
					JOINT RightToe_End
					{
						OFFSET 1.784700 -0.561700 9.474800
						CHANNELS 3 Xrotation Yrotation Zrotation
						End Site
						{
							OFFSET 0.000000 0.000000 0.000000
						}
					}
				}
			}
		}
	}
}
MOTION
Frames: 5
Frame Time: 0.016667
-287.826324 117.697311 -13.363699 -0.249588 -1.928429 0.376995 1.359810 0.282545 0.277906 1.526172 0.604860 0.276834 0.000000 0.000000 0.000000 1.528456 0.599782 0.275481 2.397564 -0.807861 -0.311582 -5.722447 -4.753665 1.062652 -0.000000 -0.000000 -0.000000 0.680081 -3.439144 -11.860524 0.000000 0.000000 0.000000 7.201838 -16.916697 -65.380244 -0.000003 -20.680368 -0.000025 -11.810935 -9.230397 8.456931 -4.796946 3.051768 4.543943 15.168962 25.440069 5.455573 -14.255083 -9.285806 7.920803 -0.000001 0.000000 -0.000000 -1.456305 0.275392 -37.796706 1.499743 3.915408 -41.904573 0.511591 2.396174 -24.100625 -0.000001 -0.000001 -0.000000 -0.989830 3.521586 -42.884173 1.912726 4.330586 -47.643735 1.341268 3.731679 -39.528337 -0.000001 -0.000000 -0.000001 -1.278581 4.236145 -52.701296 2.281779 4.639294 -52.360695 0.980804 3.246678 -33.610736 -0.000001 -0.000001 0.000003 0.169521 5.868156 -58.032402 2.290187 4.645745 -52.464418 1.860981 4.282978 -46.954723 -0.000002 0.000000 -0.000001 0.475741 8.188372 13.746942 0.000000 0.000000 0.000000 13.305184 7.816375 61.653331 -0.000003 31.239052 -0.000012 -9.883373 4.315935 -8.466886 -3.629457 2.305972 -13.175358 14.001429 -30.265408 1.170796 -9.731812 6.667330 -15.553690 0.000001 0.000000 -0.000003 -0.431370 6.502028 20.288752 1.739997 -3.631892 51.185294 0.337702 -1.742751 21.931620 0.000000 -0.000000 -0.000000 -1.795549 -0.980960 34.164774 1.353513 -3.284355 44.784574 0.568536 -2.231763 28.580674 0.000002 0.000002 -0.000001 -1.346445 -2.158752 38.580440 1.794980 -3.675365 52.048176 0.466655 -2.033758 25.843527 -0.000001 -0.000001 0.000001 -0.503798 -3.831121 44.436767 1.111621 -3.021575 40.388872 0.537335 -2.173546 27.768740 0.000001 0.000000 -0.000000 -11.474029 15.671290 9.304414 13.312173 -9.681888 -0.061097 -4.710552 -11.457379 -6.541873 1.635542 -0.000000 0.000001 0.000000 0.000000 0.000000 -5.960960 -8.826996 -8.899416 14.483877 -0.182450 3.414546 -8.790703 -2.361900 4.140054 -0.140965 0.000002 0.000001 -0.000000 0.000000 0.000000 
-287.800964 117.656250 -13.346706 -0.220846 -1.924448 0.377118 1.368819 0.285994 0.283026 1.531443 0.606262 0.276090 0.000000 0.000000 0.000000 1.533718 0.600987 0.273806 2.333150 -0.807861 -0.344317 -5.803872 -4.814681 1.134472 0.000000 0.000000 0.000000 0.675228 -3.107452 -11.968066 0.000000 0.000000 0.000000 6.895882 -17.408919 -64.965597 0.000001 -21.235272 0.000008 -11.562158 -8.704126 7.746416 -5.002436 2.937000 4.426648 15.317515 25.259583 5.072951 -14.331656 -9.984859 7.786045 -0.000001 0.000000 0.000001 -1.570720 0.351077 -38.821170 1.555523 3.976537 -42.715020 0.531082 2.439237 -24.562687 -0.000001 -0.000002 -0.000000 -1.061525 3.536017 -43.793687 1.991625 4.401020 -48.680131 1.384978 3.783924 -40.195431 -0.000001 0.000001 -0.000003 -1.391750 4.262027 -53.784427 2.370267 4.705983 -53.446855 1.006433 3.284853 -34.060774 0.000000 0.000001 0.000002 0.125762 5.897894 -59.090897 2.390674 4.720996 -53.695163 1.939652 4.354909 -47.999206 0.000000 0.000000 -0.000003 0.473368 8.054810 13.883102 0.000000 0.000000 0.000000 13.604485 8.269886 60.830881 0.000004 32.298961 0.000005 -9.651781 5.375912 -9.192765 -3.762565 2.514898 -13.410403 14.089887 -30.154619 1.745221 -9.526762 7.265929 -15.719049 -0.000000 -0.000000 0.000003 -0.560425 6.702918 20.635258 1.816313 -3.691872 52.379990 0.349138 -1.770896 22.304876 0.000003 0.000001 0.000000 -1.907310 -0.903905 34.752112 1.406560 -3.336871 45.703292 0.577236 -2.247634 28.803215 0.000001 -0.000003 0.000001 -1.442359 -2.098824 39.124621 1.864080 -3.728122 53.118477 0.471427 -2.043587 25.977790 -0.000002 0.000001 -0.000001 -0.565017 -3.792868 44.974627 1.150892 -3.067080 41.128493 0.547494 -2.192722 28.035507 -0.000001 0.000002 -0.000000 -11.566415 15.661748 9.311311 13.448210 -9.682293 -0.081214 -4.792519 -11.456504 -6.426883 1.669323 0.000001 0.000001 0.000000 0.000000 -0.000000 -6.047216 -8.869049 -8.939218 14.573807 -0.116673 3.435636 -8.785334 -2.363278 4.138205 -0.144627 0.000011 -0.000001 -0.000000 -0.000000 0.000000 
-287.767700 117.613350 -13.337895 -0.173534 -1.935184 0.378244 1.376407 0.298380 0.291026 1.534144 0.618928 0.275135 0.000000 0.000000 0.000000 1.536387 0.613600 0.273538 2.245561 -0.804275 -0.383274 -6.001869 -4.864039 1.193531 -0.000000 -0.000000 -0.000000 0.674980 -2.709237 -11.957097 0.000000 0.000000 0.000000 6.658608 -17.652576 -64.530022 0.000004 -22.655387 0.000013 -12.066287 -8.706400 7.052860 -5.209591 2.820758 4.307811 15.466335 25.076351 4.687913 -14.415297 -10.690220 7.638544 0.000000 -0.000001 -0.000001 -1.685196 0.430437 -39.850930 1.612451 4.037182 -43.529813 0.551019 2.482327 -25.026744 0.000001 -0.000001 0.000000 -1.134792 3.553195 -44.707813 2.072244 4.470392 -49.722493 1.429544 3.835917 -40.865940 0.000000 0.000001 -0.000001 -1.507009 4.293128 -54.873115 2.460523 4.771349 -54.539351 1.032484 3.322988 -34.512758 0.000001 -0.000001 0.000000 0.080648 5.930756 -60.154945 2.493375 4.794502 -54.933251 2.020069 4.425788 -49.049706 -0.000001 -0.000002 0.000000 0.480195 7.824794 13.908640 0.000000 0.000000 0.000000 13.803069 8.765852 60.021250 0.000002 33.727440 0.000007 -10.033480 6.711232 -10.260471 -3.896468 2.725659 -13.646579 14.178155 -30.041805 2.323879 -9.321208 7.870332 -15.885169 -0.000001 -0.000001 0.000002 -0.692428 6.904164 20.983513 1.894294 -3.750548 53.581540 0.360818 -1.799064 22.679524 0.000001 0.000000 -0.000001 -2.021843 -0.828652 35.342182 1.460747 -3.388812 46.627068 0.586005 -2.263505 29.026115 -0.000000 0.000003 0.000000 -1.540402 -2.040404 39.671245 1.934559 -3.779876 54.194911 0.476227 -2.053387 26.111829 -0.000001 0.000001 0.000002 -0.628027 -3.755679 45.514837 1.190966 -3.112311 41.871986 0.557762 -2.211891 28.302943 -0.000002 -0.000000 0.000001 -11.685655 15.650841 9.321683 13.600495 -9.682970 -0.106888 -4.895172 -11.437214 -6.306801 1.731776 0.000001 -0.000002 0.000000 0.000001 0.000000 -6.164875 -8.887576 -8.975096 14.677878 -0.058924 3.441704 -8.791527 -2.366793 4.147724 -0.157722 -0.000001 0.000001 0.000000 0.000001 0.000000 
-287.726654 117.585075 -13.341980 -0.124024 -1.958356 0.384810 1.384665 0.317718 0.296129 1.538205 0.645311 0.273751 0.000000 0.000000 0.000000 1.540386 0.640241 0.273648 2.156837 -0.796674 -0.417830 -6.316919 -4.882722 1.239700 -0.000000 -0.000000 -0.000000 0.681321 -2.265466 -11.771151 0.000000 0.000000 0.000000 6.596433 -17.554467 -64.079940 -0.000008 -25.201800 -0.000024 -13.999454 -9.246305 6.718635 -5.417912 2.703401 4.187577 15.615098 24.890878 4.301385 -14.506086 -11.399970 7.478268 -0.000001 0.000000 0.000002 -1.799456 0.513329 -40.883791 1.670412 4.097185 -44.347076 0.571324 2.525345 -25.491752 0.000000 -0.000001 0.000000 -1.209448 3.573137 -45.624564 2.154385 4.538512 -50.768393 1.474824 3.887527 -41.538311 0.000002 0.000001 -0.000001 -1.623991 4.329484 -55.964941 2.552314 4.835197 -55.635559 1.058891 3.361000 -34.965623 0.000000 0.000001 -0.000000 0.034381 5.966721 -61.222237 2.597997 4.866010 -56.175796 2.102034 4.495399 -50.103758 0.000001 0.000000 -0.000001 0.498076 7.530341 13.753904 0.000000 0.000000 0.000000 13.999239 9.313927 59.251966 -0.000005 35.758718 -0.000002 -11.394881 7.937369 -11.635016 -4.030867 2.937709 -13.883337 14.266039 -29.927399 2.905292 -9.115649 8.479034 -16.051691 0.000000 -0.000001 -0.000000 -0.827109 7.105279 21.332735 1.973744 -3.807768 54.787150 0.372698 -1.827213 23.054716 0.000000 -0.000000 0.000001 -2.138901 -0.755409 35.933724 1.515952 -3.440029 47.553809 0.594834 -2.279339 29.248933 -0.000001 -0.000001 0.000000 -1.640355 -1.983690 40.219060 2.006247 -3.830441 55.274989 0.481012 -2.063140 26.245427 -0.000003 -0.000004 0.000001 -0.692654 -3.719686 46.056208 1.231742 -3.157149 42.617628 0.568143 -2.231036 28.570470 -0.000001 0.000002 -0.000001 -11.786654 15.641227 9.317449 13.716984 -9.683625 -0.130636 -4.989435 -11.400842 -6.216893 1.732066 -0.000003 -0.000000 0.000000 -0.000000 0.000000 -6.277337 -8.891167 -9.007955 14.759740 -0.010797 3.432185 -8.814970 -2.373264 4.167029 -0.173520 0.000001 -0.000001 -0.000000 -0.000000 0.000000 
-287.678223 117.585533 -13.364195 -0.089827 -1.986869 0.400545 1.393657 0.339054 0.295945 1.546219 0.684569 0.271725 0.000000 0.000000 0.000000 1.548311 0.680139 0.273104 2.096726 -0.783602 -0.438585 -6.737987 -4.857628 1.284561 0.000000 -0.000000 -0.000000 0.693739 -1.794103 -11.392940 0.000000 0.000000 0.000000 6.723561 -17.114381 -63.661140 -0.000003 -28.975155 -0.000002 -17.456205 -10.025069 6.999989 -5.626875 2.585262 4.066297 15.763474 24.703720 3.914341 -14.604107 -12.112188 7.305147 -0.000001 0.000001 0.000004 -1.913129 0.599610 -41.917247 1.729281 4.156395 -45.164923 0.591979 2.568179 -25.956696 -0.000005 0.000000 -0.000001 -1.285243 3.595853 -46.541739 2.237844 4.605191 -51.815451 1.520742 3.938625 -42.211037 -0.000001 -0.000003 0.000006 -1.742270 4.371106 -57.057300 2.645424 4.897323 -56.733050 1.085577 3.398784 -35.418380 -0.000002 0.000003 0.000001 -0.012835 6.005806 -62.290232 2.704297 4.935312 -57.419918 2.185380 4.563577 -51.159029 -0.000002 -0.000001 -0.000004 0.524890 7.233767 13.397726 0.000000 0.000000 0.000000 14.296290 9.848247 58.493979 -0.000019 38.634524 0.000018 -13.750259 8.760566 -13.216018 -4.165485 3.150428 -14.120026 14.353443 -29.811836 3.488068 -8.910590 9.090564 -16.218182 -0.000001 0.000000 -0.000004 -0.964246 7.305727 21.682261 2.054492 -3.863342 55.993986 0.384727 -1.855231 23.429673 -0.000000 0.000000 -0.000001 -2.258173 -0.684382 36.525311 1.572001 -3.490385 48.481356 0.603708 -2.295092 29.471194 -0.000000 0.000001 -0.000000 -1.741991 -1.928810 40.766889 2.078944 -3.879709 56.356191 0.485807 -2.072819 26.378278 0.000002 0.000002 0.000001 -0.758711 -3.684959 46.597477 1.273124 -3.201460 43.363758 0.578575 -2.250086 28.837544 -0.000003 -0.000001 -0.000001 -11.827397 15.630944 9.282645 13.749591 -9.684014 -0.143703 -5.038451 -11.349186 -6.189733 1.695360 0.000006 -0.000001 0.000000 0.000001 -0.000000 -6.349276 -8.892317 -9.038305 14.785584 0.028046 3.407829 -8.853592 -2.381520 4.193000 -0.180895 -0.000001 -0.000000 -0.000000 0.000001 0.000000 
